<svg width="174" height="73" viewBox="0 0 174 73" fill="none" xmlns="http://www.w3.org/2000/svg">
<g clip-path="url(#clip0_5260_21310)">
<path d="M98.0906 23.1366C98.83 23.3854 99.3229 23.3854 99.8158 23.3854C100.802 23.3854 101.295 23.1366 101.788 22.3902C102.28 21.6439 102.527 20.8976 102.527 20.1512C102.527 19.4049 102.28 18.9073 101.788 18.9073C101.295 18.6585 100.802 18.6585 100.062 18.6585C99.8158 18.6585 99.5694 18.9073 99.0765 19.1561C98.5836 19.6537 98.0906 20.1512 97.5977 20.6488C97.1048 21.1463 96.8583 21.8927 96.8583 22.639C97.1048 22.639 97.3513 22.8878 98.0906 23.1366Z" fill="white"/>
<path d="M173.261 31.8439C172.768 30.8488 172.275 29.8537 171.289 28.8585C170.303 28.1122 168.824 27.3659 167.592 27.3659C163.402 27.3659 159.459 30.1024 157.487 33.5854C157.241 33.8341 156.994 34.3317 156.994 34.5805C156.994 34.8293 156.255 35.8244 156.008 36.0732C155.516 36.5707 155.269 36.8195 154.776 37.3171C154.283 37.8146 154.037 38.0634 153.544 38.561C153.051 39.0585 152.558 39.3073 152.065 39.8049C151.572 40.3024 151.079 40.5512 150.586 40.8C150.093 41.0488 149.601 41.2976 149.108 41.5463C148.615 41.7951 148.368 41.7951 148.122 41.7951C147.382 41.7951 146.89 41.2976 146.397 40.5512C145.904 39.8049 145.657 38.3122 145.411 36.5707C145.411 35.8244 145.164 35.0781 145.164 34.3317C145.164 33.5854 145.164 33.0878 145.164 32.5902C145.164 32.0927 145.164 31.5951 144.918 31.0976C144.918 30.6 144.671 30.3512 144.425 29.8537C144.425 29.6049 144.178 29.6049 144.178 29.3561C144.178 29.1073 143.932 29.1073 143.686 29.1073C143.439 29.1073 143.193 28.8585 142.946 28.8585C142.7 28.8585 142.453 28.8585 142.207 28.8585C141.96 28.8585 141.467 29.1073 140.975 29.3561C140.482 29.6049 139.989 30.1024 139.496 30.8488C139.003 31.3463 138.51 32.0927 138.017 32.839C137.524 33.5854 137.031 34.3317 136.538 35.0781C136.045 35.8244 135.552 36.5707 135.306 37.3171C134.813 38.0634 134.567 38.561 134.32 39.0585C133.581 40.0537 133.334 40.8 133.088 40.8C133.088 40.8 133.088 40.8 132.841 40.8C132.841 40.8 132.595 40.5512 132.595 40.3024C132.102 39.3073 132.102 37.8146 132.102 36.8195C132.102 35.3268 131.856 33.5854 131.609 32.0927C131.363 31.3463 131.116 30.6 130.623 30.1024C130.13 29.6049 129.637 29.3561 128.898 29.3561C128.159 29.3561 127.666 29.6049 126.926 29.8537C126.187 30.1024 125.694 30.6 125.201 31.3463C124.955 31.5951 124.708 32.0927 124.215 32.5902C121.997 35.5756 120.518 39.0585 118.3 42.0439C118.054 42.2927 117.807 42.7902 117.561 42.7902C117.807 42.5415 117.561 41.7951 117.561 41.5463C117.561 41.0488 117.807 40.3024 117.807 39.8049C118.054 38.3122 118.3 36.8195 118.547 35.3268C118.547 34.5805 118.793 34.0829 118.793 33.5854C118.793 33.0878 119.04 32.3415 119.04 31.8439C119.04 31.3463 119.04 30.8488 119.04 30.6C119.04 30.3512 119.04 29.8537 119.04 29.6049C119.04 29.3561 118.793 29.1073 118.793 28.8585C118.793 28.6098 118.547 28.361 118.3 28.361C118.054 28.1122 117.807 28.1122 117.561 28.1122C117.314 28.1122 117.314 28.1122 117.068 28.361C116.822 28.6098 116.575 28.6098 116.329 28.8585C116.082 29.1073 115.836 29.3561 115.836 29.6049C115.589 29.8537 115.589 30.1024 115.589 30.1024C115.589 30.3512 115.343 30.8488 115.343 31.3463C115.343 31.8439 115.343 32.5902 115.096 33.0878V33.3366C115.096 33.5854 114.85 33.5854 114.85 33.5854C114.603 34.0829 114.11 34.5805 113.618 35.0781C113.125 35.5756 112.632 36.322 111.892 36.8195C111.153 37.5659 110.66 38.0634 109.921 38.561C109.181 39.0585 108.688 39.8049 107.949 40.3024C106.717 41.2976 105.484 42.2927 104.006 43.039C102.773 43.5366 101.295 44.2829 100.062 43.5366C99.0765 43.039 98.3371 42.0439 98.0906 40.8C97.3513 38.0634 97.8442 35.0781 98.0906 32.5902C98.0906 32.0927 98.3371 31.3463 98.3371 30.8488C98.3371 30.3512 98.5836 29.6049 98.5836 29.3561C98.5836 28.6098 98.3371 28.361 98.0906 28.361C97.3513 28.361 96.8584 28.6098 96.119 29.1073C95.3796 29.6049 95.1331 30.1024 94.8867 30.8488V31.0976C94.3938 31.5951 93.9008 32.3415 93.4079 32.839C92.6686 33.5854 91.9292 34.3317 91.1898 35.3268C90.4504 36.0732 89.4646 37.0683 88.4788 37.8146C85.2748 40.8 81.3314 44.0341 76.6487 44.2829C76.4023 44.2829 75.9093 44.2829 75.6629 44.2829C74.9235 44.2829 74.4306 44.0341 73.9377 43.5366C72.7054 42.2927 72.9518 40.0537 73.1983 38.561C73.4448 37.3171 73.6912 35.8244 74.1841 34.5805C74.9235 32.5902 76.4023 30.1024 78.1275 28.8585C78.3739 28.6098 78.8668 28.361 79.1133 28.361C79.3598 28.361 79.6062 28.6098 79.8527 29.1073C80.0991 29.8537 80.0991 30.8488 80.3456 31.5951C80.5921 32.3415 80.8385 33.0878 81.5779 32.839C81.8244 32.839 82.8102 31.5951 83.0567 31.5951C83.796 30.1024 82.5637 26.6195 80.5921 25.3756C80.3456 25.1268 80.0991 25.1268 79.6062 25.1268C79.1133 25.1268 78.6204 25.3756 78.1275 25.6244C75.17 27.3659 73.1983 30.3512 71.4731 33.0878C70.9802 33.8341 70.7337 34.5805 70.2408 35.3268C69.2549 36.322 68.2691 37.0683 67.2833 38.0634C64.0793 41.0488 59.643 44.7805 54.9603 44.7805C52.4957 44.7805 50.5241 43.2878 50.5241 40.5512C52.2493 39.5561 53.728 38.3122 55.2068 37.0683C57.1785 35.3268 59.3966 33.5854 60.136 30.8488C60.6289 29.3561 60.3824 27.8634 59.6431 26.6195C58.6572 25.1268 56.932 24.878 55.4532 25.3756C51.017 27.3659 47.813 32.3415 46.8272 36.8195C46.0878 40.3024 46.0878 44.2829 48.5524 47.0195C49.7847 48.5122 52.4957 48.761 54.4674 48.761C56.932 48.5122 59.3966 47.7659 61.3683 46.2732C63.5864 45.0293 65.3116 43.5366 67.0368 41.5463C67.2833 41.2976 67.2833 41.2976 67.5297 41.0488C68.5156 40.0537 69.2549 39.5561 69.9943 38.3122C69.7479 38.561 69.7479 39.3073 69.7479 39.5561C69.7479 40.0537 69.7479 40.5512 69.7479 41.0488C69.7479 42.0439 69.7479 43.039 70.2408 44.0341C70.4872 45.0293 70.9802 45.7756 71.4731 46.7707C71.966 47.5171 72.9518 48.0146 73.9377 48.2634C74.4306 48.5122 74.9235 48.5122 75.4164 48.5122C77.881 48.761 80.3456 48.0146 82.3173 46.7707C84.5354 45.5268 86.5071 44.2829 88.2323 42.5415C89.4646 41.2976 90.6969 40.0537 91.9292 39.0585C92.915 38.0634 93.9008 37.0683 94.6402 36.0732C94.6402 36.8195 94.3938 37.5659 94.3938 38.3122C94.1473 40.0537 94.1473 41.7951 94.6402 43.5366C94.8867 45.0293 95.3796 46.522 96.6119 47.5171C97.8442 48.761 99.5694 49.0098 101.295 49.0098C103.02 48.761 104.745 48.0146 106.224 46.7707C107.21 46.0244 108.195 45.278 108.935 44.5317C109.674 43.7854 110.66 43.039 111.399 42.0439C112.139 41.2976 112.632 40.5512 113.371 39.8049C113.864 39.0585 114.603 38.3122 115.096 37.8146C115.343 37.5659 115.343 37.3171 115.589 37.3171C115.589 37.3171 115.096 38.3122 115.096 38.561C114.11 42.2927 113.371 43.7854 113.864 46.522C114.11 48.0146 115.343 49.0098 117.068 49.0098C118.547 49.0098 119.779 46.2732 120.272 45.5268C121.504 43.5366 122.244 41.2976 123.476 39.3073C124.215 38.3122 124.955 37.3171 125.448 36.5707C125.941 35.8244 126.68 35.078 127.173 34.5805C127.666 34.0829 127.912 33.8341 128.159 33.8341C128.652 33.8341 129.144 34.3317 129.144 35.5756C128.898 37.5659 128.898 38.8098 128.898 40.0537C128.898 42.2927 128.898 46.2732 132.102 46.2732C132.841 46.2732 133.334 45.7756 134.32 44.7805C135.059 43.7854 136.045 42.2927 137.278 40.3024C137.771 39.3073 138.51 38.3122 139.003 37.5659C139.496 36.8195 139.989 36.0732 140.482 35.5756C140.975 35.0781 141.221 34.5805 141.714 34.3317C141.96 34.0829 142.207 33.8341 142.453 33.8341C142.453 33.8341 142.7 33.8341 142.7 34.0829C143.193 35.3268 142.946 37.8146 142.946 39.0585C143.193 42.2927 143.439 47.0195 148.368 45.7756C150.34 45.278 152.558 43.7854 154.283 42.2927C154.776 41.7951 155.269 41.2976 155.762 40.8C155.762 41.0488 155.762 41.2976 155.516 41.2976C155.269 43.039 155.269 45.0293 156.748 46.522C157.98 47.7659 159.459 48.0146 161.184 48.0146C162.663 48.0146 164.388 47.2683 165.62 46.522C167.592 45.5268 169.317 44.2829 170.796 42.7902C171.535 42.0439 172.028 41.5463 172.521 41.0488C173.754 38.561 174.493 34.8293 173.261 31.8439ZM51.017 36.8195C51.017 36.322 51.2634 36.0732 51.2634 35.5756C51.2634 35.0781 51.5099 34.8293 51.5099 34.3317C51.5099 33.8341 51.7564 33.5854 52.0028 33.3366C52.7422 31.8439 53.2351 30.8488 53.9745 29.8537C54.7139 29.1073 55.4532 28.6098 56.1926 28.6098C56.4391 28.6098 56.4391 28.6098 56.6855 28.8585C56.932 29.1073 56.932 29.1073 56.932 29.1073C56.932 29.3561 57.1785 29.3561 57.1785 29.6049C57.1785 29.8537 57.1785 30.1024 57.1785 30.1024C57.1785 30.6 57.1785 30.8488 56.932 31.3463C56.6855 31.8439 56.4391 32.0927 56.1926 32.5902C55.9462 33.0878 55.6997 33.3366 55.2068 33.8341C54.9603 34.0829 54.4674 34.5805 54.221 34.8293C53.728 35.3268 53.2351 35.8244 52.4957 36.322C52.0028 36.8195 51.2634 37.3171 50.5241 37.8146C50.7705 37.5659 50.7705 37.3171 51.017 36.8195ZM170.057 37.5659C169.564 38.3122 169.317 39.0585 168.578 39.8049C168.085 40.5512 167.346 41.2976 166.606 41.7951C165.867 42.2927 165.127 43.039 164.388 43.2878C163.649 43.7854 162.909 44.0341 162.416 44.2829C161.677 44.5317 161.184 44.7805 160.691 44.7805C160.198 44.7805 159.952 44.7805 159.705 44.5317C159.459 44.2829 159.212 44.0341 158.966 43.7854C158.72 43.5366 158.473 43.2878 158.473 42.7902C158.227 42.5415 158.227 42.0439 158.227 41.7951C158.227 41.2976 158.227 40.5512 158.473 40.0537C158.72 39.3073 158.966 38.561 159.212 38.0634C159.459 37.3171 159.705 36.8195 160.198 36.0732C160.445 35.5756 160.691 35.078 161.184 34.5805C161.431 34.3317 161.677 33.8341 162.17 33.3366C162.663 32.839 162.909 32.5902 163.402 32.0927C163.895 31.5951 164.388 31.3463 164.881 31.0976C165.374 30.8488 165.867 30.6 166.36 30.6C167.839 30.6 169.071 31.0976 169.81 31.8439C170.55 32.5902 171.042 33.5854 171.042 35.0781C170.796 35.8244 170.55 36.8195 170.057 37.5659Z" fill="white"/>
<path d="M37.2153 45.278C33.5184 45.0293 30.3144 44.2829 25.3853 39.3073C22.9207 36.5707 21.4419 34.5805 20.7025 33.5854C25.6317 33.0878 31.7932 31.0976 36.7224 27.3658C45.102 21.3951 47.813 13.6829 46.0878 7.71219C44.3626 1.74146 39.187 -0.248785 32.2861 -4.39089e-06C25.3853 0.248776 17.745 2.23902 10.5977 8.70731C3.45041 15.4244 0.246446 25.3756 -1.30999e-05 27.3658C-0.246472 28.6098 3.45041 34.8293 3.45041 31.3463C3.69687 28.1122 4.92917 24.6293 8.13313 18.9073C11.3371 12.9366 16.0198 6.71707 24.3994 3.48292C30.068 1.2439 38.4476 1.49268 41.4051 6.71707C44.6091 11.9415 39.9263 21.1463 32.2861 26.8683C26.1246 31.5951 20.2096 32.3415 16.2663 31.8439C17.2521 29.3561 18.4844 26.8683 19.7167 24.3805C21.6884 20.8976 24.153 16.9171 26.6176 14.1805C28.8357 11.6927 30.068 10.2 30.068 9.70244C30.068 8.45853 29.3286 6.96585 28.3428 6.46829C27.3569 5.97073 24.8923 8.45853 23.1671 10.6976C21.4419 13.1854 16.2663 20.4 12.8159 30.8488C10.1048 29.3561 9.11897 26.3707 9.11897 25.6244C9.11897 24.878 8.13313 24.878 8.13313 26.1219C7.88667 27.1171 8.62605 29.8537 12.5694 32.3415C9.85834 40.8 9.85834 43.2878 9.61189 44.7805C10.1048 44.7805 11.0906 44.5317 12.3229 44.5317C13.3088 41.0488 14.2946 37.3171 15.7734 33.5854C16.7592 33.8341 18.2379 33.8341 19.4702 33.8341C19.7167 34.3317 21.9348 39.0585 25.1388 43.039C28.5892 47.2683 35.2436 51.9951 38.4476 50.7512C40.4193 50.0049 42.1445 46.0244 41.898 45.278C41.6515 44.5317 40.1728 45.5268 37.2153 45.278Z" fill="white"/>
<path d="M10.5977 51C10.5977 51 11.0906 49.5073 12.0765 46.0244C10.8442 46.0244 10.1048 46.2732 9.61188 46.2732C9.85834 48.2634 10.5977 51 10.5977 51Z" fill="white"/>
</g>
<path d="M9.07101 61.76H9.89601V63.124H9.07101V61.76ZM4.82501 62.651H14.186V64.598H13.394V63.377H5.58401V64.598H4.82501V62.651ZM8.70801 63.729L9.22501 64.268C8.86568 64.4073 8.45501 64.5393 7.99301 64.664C7.53834 64.7887 7.10201 64.8913 6.68401 64.972C6.66201 64.8987 6.62901 64.8107 6.58501 64.708C6.54834 64.6053 6.50801 64.5173 6.46401 64.444C6.72801 64.378 6.99568 64.3083 7.26701 64.235C7.54568 64.1543 7.80968 64.07 8.05901 63.982C8.31568 63.894 8.53201 63.8097 8.70801 63.729ZM6.17801 64.279L6.91501 64.444V67.348H6.17801V64.279ZM6.17801 66.974H12.118V64.884H9.83001V64.279H12.888V67.579H6.17801V66.974ZM6.44201 65.621H9.02701V66.226H6.44201V65.621ZM9.98401 65.621H12.503V66.226H9.98401V65.621ZM7.68501 67.249L8.42201 67.469C8.17268 67.8723 7.86101 68.25 7.48701 68.602C7.12034 68.9467 6.72068 69.2583 6.28801 69.537C5.86268 69.8157 5.42634 70.054 4.97901 70.252C4.94234 70.2007 4.89468 70.1347 4.83601 70.054C4.78468 69.966 4.72601 69.8817 4.66001 69.801C4.59401 69.713 4.53534 69.6433 4.48401 69.592C4.90934 69.4233 5.32368 69.2253 5.72701 68.998C6.13768 68.7633 6.51168 68.4993 6.84901 68.206C7.18634 67.9053 7.46501 67.5863 7.68501 67.249ZM7.22301 68.294H13.328V68.976H6.54101L7.22301 68.294ZM13.053 68.294H13.867C13.867 68.294 13.8633 68.3343 13.856 68.415C13.856 68.4957 13.8523 68.5653 13.845 68.624C13.8083 69.262 13.7643 69.779 13.713 70.175C13.669 70.571 13.614 70.8753 13.548 71.088C13.4893 71.308 13.416 71.4693 13.328 71.572C13.2327 71.6673 13.13 71.7333 13.02 71.77C12.9173 71.814 12.789 71.8397 12.635 71.847C12.4957 71.8617 12.3013 71.8653 12.052 71.858C11.81 71.858 11.5533 71.8507 11.282 71.836C11.2747 71.726 11.249 71.6013 11.205 71.462C11.1683 71.33 11.117 71.2127 11.051 71.11C11.315 71.1393 11.5607 71.154 11.788 71.154C12.0153 71.1613 12.1767 71.165 12.272 71.165C12.3673 71.1723 12.4407 71.1687 12.492 71.154C12.5507 71.1467 12.602 71.1173 12.646 71.066C12.712 71 12.767 70.8753 12.811 70.692C12.855 70.5013 12.899 70.2227 12.943 69.856C12.987 69.482 13.0237 68.998 13.053 68.404V68.294ZM6.31001 69.405L6.98101 69.614C6.89301 70.0027 6.76468 70.395 6.59601 70.791C6.43468 71.1797 6.20368 71.4987 5.90301 71.748L5.28701 71.374C5.55834 71.1467 5.77468 70.8533 5.93601 70.494C6.10468 70.1347 6.22934 69.7717 6.31001 69.405ZM7.63001 69.603L8.27901 69.526C8.39634 69.8267 8.49168 70.1567 8.56501 70.516C8.64568 70.8753 8.68601 71.1833 8.68601 71.44L8.00401 71.539C8.00401 71.2823 7.96734 70.9743 7.89401 70.615C7.82801 70.2483 7.74001 69.911 7.63001 69.603ZM9.18101 69.548L9.77501 69.372C9.95101 69.636 10.1087 69.9257 10.248 70.241C10.3873 70.549 10.479 70.8203 10.523 71.055L9.89601 71.253C9.84468 71.0183 9.75301 70.7397 9.62101 70.417C9.48901 70.0943 9.34234 69.8047 9.18101 69.548ZM10.699 69.482L11.26 69.218C11.4507 69.394 11.6377 69.5957 11.821 69.823C12.0043 70.043 12.1363 70.2447 12.217 70.428L11.645 70.725C11.5643 70.5417 11.4323 70.3363 11.249 70.109C11.073 69.8743 10.8897 69.6653 10.699 69.482Z" fill="white"/>
<path d="M20.005 62.574H29.806V63.399H20.005V62.574ZM24.251 63.223H25.12V71.869H24.251V63.223ZM24.724 65.83L25.274 65.203C25.604 65.357 25.9523 65.533 26.319 65.731C26.6857 65.929 27.0487 66.1343 27.408 66.347C27.7673 66.5523 28.101 66.754 28.409 66.952C28.7243 67.15 28.992 67.3333 29.212 67.502L28.629 68.25C28.4163 68.0813 28.156 67.8943 27.848 67.689C27.5473 67.4763 27.2173 67.2637 26.858 67.051C26.506 66.831 26.1467 66.6183 25.78 66.413C25.4133 66.2003 25.0613 66.006 24.724 65.83Z" fill="white"/>
<path d="M39.2 67.524L39.651 67.37C39.7977 67.5533 39.9333 67.7587 40.058 67.986C40.1827 68.206 40.2633 68.4003 40.3 68.569L39.838 68.745C39.794 68.5763 39.7097 68.3783 39.585 68.151C39.4677 67.9163 39.3393 67.7073 39.2 67.524ZM37.396 66.567L37.737 66.237C37.9497 66.3837 38.166 66.5597 38.386 66.765C38.606 66.9703 38.771 67.1573 38.881 67.326L38.54 67.711C38.4373 67.5423 38.276 67.3517 38.056 67.139C37.8433 66.919 37.6233 66.7283 37.396 66.567ZM38.716 65.511L39.233 65.731C39.0863 65.929 38.9323 66.127 38.771 66.325C38.6097 66.5157 38.4557 66.6807 38.309 66.82L37.913 66.633C38.0377 66.479 38.177 66.292 38.331 66.072C38.4923 65.852 38.6207 65.665 38.716 65.511ZM39.508 66.27L39.992 66.501C39.816 66.7063 39.6217 66.9227 39.409 67.15C39.2037 67.3773 38.9983 67.5973 38.793 67.81C38.5877 68.0153 38.3897 68.195 38.199 68.349L37.836 68.162C38.0193 67.9933 38.2137 67.799 38.419 67.579C38.6317 67.3517 38.8333 67.1243 39.024 66.897C39.2147 66.6623 39.376 66.4533 39.508 66.27ZM40.63 68.756H41.235V71.682H40.63V68.756ZM37.264 68.074C37.6087 68.0593 38.0083 68.041 38.463 68.019C38.9177 67.997 39.398 67.9677 39.904 67.931V68.426C39.4347 68.4627 38.98 68.4957 38.54 68.525C38.1073 68.5543 37.704 68.58 37.33 68.602L37.264 68.074ZM42.17 67.458L42.632 67.315C42.7933 67.5057 42.9437 67.722 43.083 67.964C43.2223 68.206 43.3177 68.4187 43.369 68.602L42.896 68.789C42.8373 68.6057 42.742 68.3893 42.61 68.14C42.478 67.8907 42.3313 67.6633 42.17 67.458ZM40.08 66.545L40.432 66.226C40.6593 66.38 40.883 66.5633 41.103 66.776C41.3303 66.9887 41.5027 67.1793 41.62 67.348L41.246 67.722C41.136 67.546 40.971 67.348 40.751 67.128C40.531 66.908 40.3073 66.7137 40.08 66.545ZM41.455 65.478L41.994 65.709C41.8327 65.9217 41.664 66.1343 41.488 66.347C41.312 66.5523 41.147 66.732 40.993 66.886L40.586 66.699C40.7327 66.5377 40.8867 66.3397 41.048 66.105C41.2167 65.863 41.3523 65.654 41.455 65.478ZM42.247 66.303L42.742 66.534C42.5587 66.7393 42.357 66.9557 42.137 67.183C41.917 67.4103 41.697 67.6267 41.477 67.832C41.257 68.0373 41.048 68.217 40.85 68.371L40.476 68.162C40.674 68.0007 40.8793 67.8137 41.092 67.601C41.312 67.381 41.5247 67.1573 41.73 66.93C41.9353 66.6953 42.1077 66.4863 42.247 66.303ZM40.212 68.074C40.5713 68.0593 40.982 68.041 41.444 68.019C41.9133 67.9897 42.4083 67.9603 42.929 67.931V68.415C42.467 68.4517 42.0123 68.4847 41.565 68.514C41.125 68.536 40.7143 68.5617 40.333 68.591L40.212 68.074ZM37.693 68.91H38.265V69.944H39.607V70.472H37.693V68.91ZM42.313 68.91H42.874V70.472H41.07V69.944H42.313V68.91ZM39.31 68.756H39.904V69.746C39.904 70.0173 39.8673 70.2813 39.794 70.538C39.7207 70.7873 39.574 71.0183 39.354 71.231C39.134 71.451 38.793 71.6453 38.331 71.814C38.2943 71.7333 38.2357 71.6453 38.155 71.55C38.0743 71.4547 38.001 71.3777 37.935 71.319C38.3383 71.1943 38.639 71.0477 38.837 70.879C39.035 70.7103 39.1633 70.527 39.222 70.329C39.2807 70.131 39.31 69.9293 39.31 69.724V68.756ZM36.197 63.652H39.277V64.213H36.197V63.652ZM41.246 63.652H44.414V64.213H41.246V63.652ZM44.106 62.233H44.909V70.835C44.909 71.0697 44.8833 71.253 44.832 71.385C44.7807 71.5243 44.678 71.6307 44.524 71.704C44.3847 71.77 44.194 71.8103 43.952 71.825C43.7173 71.8397 43.4277 71.847 43.083 71.847C43.0683 71.7737 43.0463 71.6857 43.017 71.583C42.9877 71.4877 42.9583 71.3887 42.929 71.286C42.8997 71.1833 42.863 71.099 42.819 71.033C43.0683 71.0403 43.2957 71.044 43.501 71.044C43.7063 71.044 43.8457 71.044 43.919 71.044C43.9923 71.0367 44.04 71.0183 44.062 70.989C44.0913 70.9597 44.106 70.9083 44.106 70.835V62.233ZM36.252 62.233H39.794V65.61H36.252V65.005H39.013V62.838H36.252V62.233ZM44.513 62.233V62.838H41.565V65.005H44.513V65.61H40.773V62.233H44.513ZM35.757 62.233H36.549V71.891H35.757V62.233Z" fill="white"/>
<path d="M50.684 63.553H55.37V64.334H50.684V63.553ZM52.312 65.841H54.314V66.611H52.312V65.841ZM52.631 61.782H53.456V63.828H52.631V61.782ZM57.856 62.706C57.702 63.1533 57.5003 63.6153 57.251 64.092C57.0017 64.5687 56.712 65.0197 56.382 65.445C56.0593 65.8703 55.7073 66.237 55.326 66.545C55.282 66.4277 55.2197 66.2993 55.139 66.16C55.0583 66.0133 54.9813 65.8923 54.908 65.797C55.1867 65.577 55.4507 65.3167 55.7 65.016C55.9567 64.708 56.1913 64.3743 56.404 64.015C56.624 63.6557 56.8183 63.2853 56.987 62.904C57.1557 62.5153 57.2913 62.1377 57.394 61.771H58.241C58.4317 62.3063 58.6663 62.8307 58.945 63.344C59.2237 63.85 59.528 64.312 59.858 64.73C60.1953 65.1407 60.5363 65.4743 60.881 65.731C60.8077 65.8337 60.7307 65.962 60.65 66.116C60.5693 66.2627 60.4997 66.3983 60.441 66.523C60.0743 66.2223 59.726 65.8667 59.396 65.456C59.066 65.038 58.769 64.5907 58.505 64.114C58.241 63.6373 58.0247 63.168 57.856 62.706ZM51.894 64.015H52.697C52.6897 64.807 52.664 65.5843 52.62 66.347C52.5833 67.1023 52.5137 67.8247 52.411 68.514C52.3157 69.2033 52.1653 69.8377 51.96 70.417C51.762 70.989 51.4907 71.4913 51.146 71.924C51.08 71.8287 50.9847 71.7223 50.86 71.605C50.7353 71.495 50.6217 71.407 50.519 71.341C50.8343 70.9523 51.08 70.494 51.256 69.966C51.4393 69.4307 51.575 68.844 51.663 68.206C51.751 67.568 51.8097 66.8933 51.839 66.182C51.8683 65.4707 51.8867 64.7483 51.894 64.015ZM54.05 65.841H54.842C54.842 65.841 54.842 65.8667 54.842 65.918C54.842 65.962 54.842 66.017 54.842 66.083C54.842 66.1417 54.8383 66.1893 54.831 66.226C54.8163 67.1427 54.798 67.9163 54.776 68.547C54.754 69.1777 54.7247 69.6947 54.688 70.098C54.6587 70.494 54.622 70.802 54.578 71.022C54.534 71.2493 54.4753 71.407 54.402 71.495C54.3067 71.6197 54.2077 71.704 54.105 71.748C54.0097 71.7993 53.8887 71.836 53.742 71.858C53.6027 71.8727 53.4267 71.88 53.214 71.88C53.0013 71.88 52.7777 71.8727 52.543 71.858C52.5357 71.748 52.5137 71.6197 52.477 71.473C52.4403 71.3263 52.389 71.2017 52.323 71.099C52.5503 71.121 52.7593 71.132 52.95 71.132C53.1407 71.1393 53.28 71.143 53.368 71.143C53.4487 71.143 53.5147 71.132 53.566 71.11C53.6173 71.0953 53.6613 71.055 53.698 70.989C53.7713 70.9083 53.8263 70.6993 53.863 70.362C53.907 70.0247 53.9437 69.5077 53.973 68.811C54.0023 68.1143 54.028 67.1793 54.05 66.006V65.841ZM56.657 66.523L57.196 66.006C57.4453 66.1527 57.702 66.325 57.966 66.523C58.2373 66.7137 58.4867 66.908 58.714 67.106C58.9413 67.2967 59.1247 67.4763 59.264 67.645L58.681 68.239C58.549 68.063 58.373 67.8723 58.153 67.667C57.933 67.4617 57.691 67.26 57.427 67.062C57.163 66.864 56.9063 66.6843 56.657 66.523ZM55.766 69.504L56.261 68.866C56.5983 69.02 56.943 69.1887 57.295 69.372C57.6543 69.5553 58.0027 69.7497 58.34 69.955C58.6847 70.1603 59 70.3657 59.286 70.571C59.5793 70.7763 59.825 70.9743 60.023 71.165L59.495 71.88C59.3043 71.6967 59.066 71.4987 58.78 71.286C58.494 71.0733 58.1823 70.8607 57.845 70.648C57.5077 70.428 57.1593 70.2227 56.8 70.032C56.448 69.834 56.1033 69.658 55.766 69.504Z" fill="white"/>
<path d="M69.692 66.226H76.061V67.018H69.692V66.226ZM70.121 63.575H75.61V64.367H70.121V63.575ZM72.365 61.815H73.201V71.869H72.365V61.815ZM72.2 66.666L72.849 66.864C72.6217 67.4653 72.3357 68.0447 71.991 68.602C71.6463 69.1593 71.265 69.6653 70.847 70.12C70.4363 70.5673 70.0037 70.9413 69.549 71.242C69.5123 71.176 69.461 71.1027 69.395 71.022C69.329 70.9413 69.2593 70.8643 69.186 70.791C69.1127 70.7103 69.0467 70.6443 68.988 70.593C69.428 70.3437 69.8533 70.0137 70.264 69.603C70.6747 69.185 71.045 68.723 71.375 68.217C71.7123 67.711 71.9873 67.194 72.2 66.666ZM73.377 66.655C73.575 67.161 73.8207 67.6633 74.114 68.162C74.4147 68.6607 74.741 69.119 75.093 69.537C75.4523 69.9477 75.819 70.2813 76.193 70.538C76.1343 70.5893 76.0647 70.6553 75.984 70.736C75.9033 70.8167 75.8263 70.901 75.753 70.989C75.687 71.0697 75.6283 71.1467 75.577 71.22C75.203 70.9047 74.8363 70.516 74.477 70.054C74.125 69.592 73.7987 69.086 73.498 68.536C73.2047 67.986 72.9517 67.4287 72.739 66.864L73.377 66.655ZM66.821 62.772H69.296V69.174H66.821V68.371H68.537V63.564H66.821V62.772ZM66.403 62.772H67.162V70.032H66.403V62.772Z" fill="white"/>
<path d="M84.421 63.157H91.417V63.85H84.421V63.157ZM87.424 63.465L88.359 63.553C88.271 63.8317 88.1757 64.1103 88.073 64.389C87.9777 64.6677 87.886 64.9097 87.798 65.115L87.116 64.972C87.1747 64.7593 87.2333 64.51 87.292 64.224C87.358 63.9307 87.402 63.6777 87.424 63.465ZM89.338 61.76L90.185 61.958C90.031 62.2147 89.8733 62.4713 89.712 62.728C89.5507 62.9773 89.3967 63.1937 89.25 63.377L88.568 63.19C88.656 63.0507 88.7477 62.8967 88.843 62.728C88.9383 62.5593 89.03 62.3907 89.118 62.222C89.2133 62.046 89.2867 61.892 89.338 61.76ZM85.587 62.035L86.236 61.782C86.412 61.9653 86.577 62.1743 86.731 62.409C86.885 62.6437 86.9913 62.849 87.05 63.025L86.368 63.322C86.3093 63.146 86.2067 62.937 86.06 62.695C85.9133 62.4457 85.7557 62.2257 85.587 62.035ZM83.882 66.105V69.999H83.079V66.875H81.539V66.105H83.882ZM83.882 69.636C84.146 70.0393 84.5127 70.34 84.982 70.538C85.4513 70.736 86.005 70.846 86.643 70.868C86.9437 70.8827 87.3067 70.8937 87.732 70.901C88.1647 70.901 88.6157 70.8973 89.085 70.89C89.5617 70.8827 90.02 70.8717 90.46 70.857C90.9 70.8423 91.285 70.824 91.615 70.802C91.5783 70.8607 91.5417 70.9413 91.505 71.044C91.4683 71.1467 91.4353 71.2493 91.406 71.352C91.3767 71.462 91.3547 71.5573 91.34 71.638C91.0393 71.6527 90.6837 71.6637 90.273 71.671C89.8623 71.6783 89.437 71.682 88.997 71.682C88.557 71.6893 88.128 71.6893 87.71 71.682C87.2993 71.682 86.9437 71.6783 86.643 71.671C85.9243 71.6417 85.3083 71.5243 84.795 71.319C84.289 71.1137 83.86 70.791 83.508 70.351C83.244 70.5857 82.9727 70.8203 82.694 71.055C82.4153 71.297 82.1257 71.5427 81.825 71.792L81.396 70.945C81.66 70.769 81.9423 70.5673 82.243 70.34C82.551 70.1053 82.848 69.8707 83.134 69.636H83.882ZM81.66 62.519L82.265 62.024C82.507 62.178 82.7527 62.3577 83.002 62.563C83.2513 62.761 83.4787 62.9627 83.684 63.168C83.8967 63.3733 84.069 63.564 84.201 63.74L83.541 64.29C83.431 64.114 83.2697 63.9197 83.057 63.707C82.8517 63.4943 82.6243 63.2853 82.375 63.08C82.133 62.8673 81.8947 62.6803 81.66 62.519ZM86.082 66.875V67.788H89.745V66.875H86.082ZM86.082 68.393V69.317H89.745V68.393H86.082ZM86.082 65.368V66.27H89.745V65.368H86.082ZM85.301 64.73H90.559V69.966H85.301V64.73Z" fill="white"/>
<path d="M97.841 63.531H101.185V70.725H97.841V69.977H100.426V64.268H97.841V63.531ZM97.357 63.531H98.116V71.594H97.357V63.531ZM97.786 66.589H100.822V67.315H97.786V66.589ZM99.04 61.738L99.931 61.892C99.821 62.2367 99.7 62.585 99.568 62.937C99.4433 63.289 99.326 63.5897 99.216 63.839L98.545 63.674C98.611 63.4907 98.6733 63.2853 98.732 63.058C98.798 62.8307 98.8567 62.5997 98.908 62.365C98.9667 62.1303 99.0107 61.9213 99.04 61.738ZM102.758 63.498H106.135V64.257H102.758V63.498ZM105.838 63.498H106.619C106.619 63.498 106.619 63.5237 106.619 63.575C106.619 63.6263 106.619 63.6887 106.619 63.762C106.619 63.828 106.615 63.8793 106.608 63.916C106.564 65.1773 106.52 66.2443 106.476 67.117C106.439 67.9897 106.392 68.7047 106.333 69.262C106.274 69.812 106.205 70.241 106.124 70.549C106.051 70.857 105.959 71.077 105.849 71.209C105.724 71.3703 105.592 71.4803 105.453 71.539C105.321 71.605 105.156 71.649 104.958 71.671C104.775 71.6857 104.533 71.6893 104.232 71.682C103.939 71.682 103.634 71.671 103.319 71.649C103.312 71.5317 103.282 71.396 103.231 71.242C103.187 71.088 103.125 70.9597 103.044 70.857C103.411 70.8863 103.741 70.9047 104.034 70.912C104.335 70.9193 104.551 70.923 104.683 70.923C104.793 70.923 104.881 70.912 104.947 70.89C105.02 70.8607 105.09 70.8093 105.156 70.736C105.244 70.6407 105.321 70.4463 105.387 70.153C105.46 69.8523 105.523 69.427 105.574 68.877C105.625 68.327 105.673 67.6267 105.717 66.776C105.761 65.918 105.801 64.884 105.838 63.674V63.498ZM102.978 61.716L103.77 61.892C103.638 62.442 103.477 62.981 103.286 63.509C103.103 64.0297 102.897 64.521 102.67 64.983C102.45 65.445 102.215 65.852 101.966 66.204C101.915 66.16 101.845 66.1087 101.757 66.05C101.676 65.984 101.592 65.9253 101.504 65.874C101.416 65.8153 101.339 65.7677 101.273 65.731C101.53 65.401 101.764 65.0233 101.977 64.598C102.19 64.1653 102.38 63.7033 102.549 63.212C102.718 62.7207 102.861 62.222 102.978 61.716ZM102.472 66.347L103.121 65.984C103.326 66.2407 103.539 66.523 103.759 66.831C103.986 67.139 104.195 67.436 104.386 67.722C104.584 68.008 104.742 68.261 104.859 68.481L104.155 68.921C104.045 68.6937 103.895 68.4333 103.704 68.14C103.521 67.8393 103.319 67.535 103.099 67.227C102.886 66.9117 102.677 66.6183 102.472 66.347Z" fill="white"/>
<path d="M114.616 61.76L115.419 61.991C115.221 62.4017 114.986 62.805 114.715 63.201C114.444 63.5897 114.154 63.9527 113.846 64.29C113.545 64.6273 113.241 64.9243 112.933 65.181C112.889 65.1297 112.823 65.071 112.735 65.005C112.654 64.9317 112.57 64.862 112.482 64.796C112.401 64.73 112.328 64.6787 112.262 64.642C112.731 64.29 113.175 63.861 113.593 63.355C114.011 62.849 114.352 62.3173 114.616 61.76ZM114.231 63.025H121.81V63.773H113.956L114.231 63.025ZM112.394 65.621H122.217V66.38H112.394V65.621ZM112.559 68.25H122.074V69.009H112.559V68.25ZM115.892 63.278H116.618V68.613H115.892V63.278ZM113.934 63.278H114.671V68.646H113.934V63.278ZM117.883 63.278H118.598V68.646H117.883V63.278ZM119.896 63.278H120.666V68.646H119.896V63.278ZM115.595 69.757L116.354 69.68C116.427 70.0027 116.49 70.351 116.541 70.725C116.592 71.099 116.622 71.4143 116.629 71.671L115.826 71.781C115.826 71.605 115.815 71.3997 115.793 71.165C115.778 70.9377 115.753 70.6993 115.716 70.45C115.687 70.2007 115.646 69.9697 115.595 69.757ZM117.839 69.757L118.609 69.614C118.712 69.8267 118.811 70.0577 118.906 70.307C119.001 70.549 119.086 70.7837 119.159 71.011C119.232 71.2383 119.287 71.44 119.324 71.616L118.51 71.792C118.459 71.528 118.371 71.2053 118.246 70.824C118.121 70.4427 117.986 70.087 117.839 69.757ZM120.083 69.68L120.864 69.427C121.047 69.6397 121.234 69.878 121.425 70.142C121.616 70.406 121.792 70.6663 121.953 70.923C122.122 71.1723 122.254 71.3997 122.349 71.605L121.535 71.902C121.447 71.704 121.322 71.4767 121.161 71.22C121.007 70.9633 120.835 70.6993 120.644 70.428C120.453 70.1567 120.266 69.9073 120.083 69.68ZM113.67 69.471L114.462 69.669C114.315 70.0797 114.125 70.4867 113.89 70.89C113.655 71.2933 113.388 71.627 113.087 71.891L112.317 71.572C112.603 71.3373 112.867 71.0293 113.109 70.648C113.351 70.2667 113.538 69.8743 113.67 69.471Z" fill="white"/>
<path d="M132.557 64.323H136.66V65.027H132.557V64.323ZM130.841 70.923C131.186 70.857 131.582 70.7837 132.029 70.703C132.476 70.615 132.953 70.5233 133.459 70.428C133.965 70.3253 134.475 70.2227 134.988 70.12L135.054 70.835C134.357 70.9963 133.661 71.154 132.964 71.308C132.275 71.462 131.659 71.6013 131.116 71.726L130.841 70.923ZM132.084 62.244H132.887V70.989H132.084V62.244ZM132.557 62.244H137.056V67.128H132.557V66.402H136.242V62.97H132.557V62.244ZM134.691 66.666C134.845 67.348 135.061 67.986 135.34 68.58C135.619 69.1667 135.963 69.6837 136.374 70.131C136.785 70.5783 137.261 70.923 137.804 71.165C137.745 71.2163 137.679 71.2823 137.606 71.363C137.533 71.4437 137.467 71.528 137.408 71.616C137.349 71.704 137.298 71.781 137.254 71.847C136.675 71.5537 136.172 71.1613 135.747 70.67C135.329 70.1713 134.977 69.5957 134.691 68.943C134.405 68.283 134.174 67.5643 133.998 66.787L134.691 66.666ZM136.88 67.381L137.518 67.854C137.217 68.14 136.884 68.4297 136.517 68.723C136.15 69.009 135.813 69.2547 135.505 69.46L134.988 69.031C135.186 68.8917 135.399 68.7303 135.626 68.547C135.861 68.3563 136.088 68.1583 136.308 67.953C136.535 67.7477 136.726 67.557 136.88 67.381ZM128.102 62.233H130.918V62.981H128.883V71.88H128.102V62.233ZM130.676 62.233H130.819L130.951 62.2L131.501 62.541C131.391 62.8417 131.266 63.1643 131.127 63.509C130.988 63.8463 130.845 64.1837 130.698 64.521C130.559 64.8583 130.419 65.17 130.28 65.456C130.727 65.9107 131.021 66.336 131.16 66.732C131.307 67.128 131.38 67.4947 131.38 67.832C131.387 68.14 131.351 68.404 131.27 68.624C131.197 68.8367 131.079 69.0017 130.918 69.119C130.837 69.1777 130.742 69.2217 130.632 69.251C130.529 69.2803 130.419 69.306 130.302 69.328C130.185 69.3427 130.053 69.35 129.906 69.35C129.759 69.35 129.616 69.3463 129.477 69.339C129.47 69.2363 129.448 69.1117 129.411 68.965C129.374 68.8183 129.323 68.69 129.257 68.58C129.404 68.602 129.536 68.613 129.653 68.613C129.778 68.613 129.888 68.613 129.983 68.613C130.056 68.5983 130.126 68.5837 130.192 68.569C130.258 68.5543 130.32 68.5287 130.379 68.492C130.467 68.4333 130.529 68.338 130.566 68.206C130.603 68.074 130.621 67.9237 130.621 67.755C130.621 67.4543 130.548 67.1207 130.401 66.754C130.254 66.3873 129.961 65.9877 129.521 65.555C129.631 65.3057 129.741 65.0417 129.851 64.763C129.961 64.4843 130.064 64.2057 130.159 63.927C130.262 63.6483 130.357 63.3843 130.445 63.135C130.533 62.8857 130.61 62.662 130.676 62.464V62.233Z" fill="white"/>
<path d="M150.817 62.783H151.675V70.692C151.675 70.9853 151.631 71.209 151.543 71.363C151.462 71.5243 151.312 71.6417 151.092 71.715C150.879 71.7883 150.579 71.8287 150.19 71.836C149.809 71.8507 149.343 71.858 148.793 71.858C148.778 71.7773 148.749 71.682 148.705 71.572C148.668 71.4693 148.628 71.363 148.584 71.253C148.54 71.143 148.496 71.0477 148.452 70.967C148.745 70.9817 149.031 70.9927 149.31 71C149.596 71 149.842 71 150.047 71C150.26 71 150.41 71 150.498 71C150.615 70.9853 150.696 70.9597 150.74 70.923C150.791 70.879 150.817 70.7983 150.817 70.681V62.783ZM144.338 64.983H145.141V69.977H144.338V64.983ZM144.679 64.983H148.848V69.097H144.679V68.305H148.034V65.775H144.679V64.983ZM143.216 62.541H153.028V63.366H143.216V62.541Z" fill="white"/>
<path d="M160.288 61.749L161.135 61.958C161.003 62.2587 160.86 62.574 160.706 62.904C160.559 63.2267 160.405 63.5347 160.244 63.828C160.09 64.1213 159.94 64.3853 159.793 64.62L159.078 64.422C159.225 64.18 159.371 63.905 159.518 63.597C159.672 63.2817 159.815 62.9627 159.947 62.64C160.086 62.31 160.2 62.013 160.288 61.749ZM158.44 64.092C158.821 64.0773 159.261 64.0627 159.76 64.048C160.259 64.026 160.79 64.004 161.355 63.982C161.92 63.9527 162.488 63.927 163.06 63.905L163.049 64.631C162.506 64.6677 161.96 64.7007 161.41 64.73C160.867 64.7593 160.347 64.7887 159.848 64.818C159.357 64.8473 158.909 64.873 158.506 64.895L158.44 64.092ZM159.1 65.676H162.587V66.38H159.87V71.869H159.1V65.676ZM162.213 65.676H163.027V70.923C163.027 71.1357 163.001 71.3007 162.95 71.418C162.899 71.5427 162.796 71.6417 162.642 71.715C162.488 71.7737 162.29 71.8103 162.048 71.825C161.806 71.8397 161.513 71.847 161.168 71.847C161.146 71.737 161.109 71.6087 161.058 71.462C161.007 71.3153 160.952 71.1907 160.893 71.088C161.15 71.0953 161.384 71.099 161.597 71.099C161.81 71.1063 161.956 71.1063 162.037 71.099C162.11 71.099 162.158 71.0843 162.18 71.055C162.202 71.033 162.213 70.9853 162.213 70.912V65.676ZM159.474 67.326H162.642V67.975H159.474V67.326ZM159.474 68.976H162.642V69.625H159.474V68.976ZM164.061 61.782H164.886V65.423C164.886 65.599 164.919 65.7127 164.985 65.764C165.058 65.8153 165.223 65.841 165.48 65.841C165.531 65.841 165.634 65.841 165.788 65.841C165.949 65.841 166.125 65.841 166.316 65.841C166.507 65.841 166.686 65.841 166.855 65.841C167.024 65.841 167.145 65.841 167.218 65.841C167.365 65.841 167.475 65.8117 167.548 65.753C167.621 65.687 167.673 65.566 167.702 65.39C167.731 65.2067 167.753 64.9317 167.768 64.565C167.834 64.609 167.907 64.653 167.988 64.697C168.076 64.741 168.168 64.7813 168.263 64.818C168.358 64.8473 168.443 64.8693 168.516 64.884C168.487 65.3313 168.432 65.6797 168.351 65.929C168.27 66.1783 168.146 66.3507 167.977 66.446C167.816 66.5413 167.588 66.589 167.295 66.589C167.244 66.589 167.152 66.589 167.02 66.589C166.895 66.589 166.749 66.589 166.58 66.589C166.419 66.589 166.254 66.589 166.085 66.589C165.924 66.589 165.781 66.589 165.656 66.589C165.531 66.589 165.447 66.589 165.403 66.589C165.051 66.589 164.776 66.556 164.578 66.49C164.387 66.424 164.252 66.3067 164.171 66.138C164.098 65.9693 164.061 65.7347 164.061 65.434V61.782ZM167.438 62.585L167.988 63.201C167.673 63.3403 167.324 63.4833 166.943 63.63C166.562 63.7693 166.169 63.9013 165.766 64.026C165.363 64.1507 164.97 64.268 164.589 64.378C164.574 64.2973 164.541 64.202 164.49 64.092C164.446 63.9747 164.398 63.8757 164.347 63.795C164.706 63.685 165.077 63.5603 165.458 63.421C165.839 63.2817 166.202 63.1423 166.547 63.003C166.892 62.8563 167.189 62.717 167.438 62.585ZM164.061 66.897H164.875V70.615C164.875 70.791 164.912 70.9083 164.985 70.967C165.066 71.0183 165.238 71.044 165.502 71.044C165.561 71.044 165.671 71.044 165.832 71.044C165.993 71.044 166.173 71.044 166.371 71.044C166.576 71.044 166.763 71.044 166.932 71.044C167.108 71.044 167.236 71.044 167.317 71.044C167.471 71.044 167.588 71.011 167.669 70.945C167.75 70.879 167.805 70.7433 167.834 70.538C167.863 70.3253 167.885 70.01 167.9 69.592C168.003 69.658 168.124 69.7203 168.263 69.779C168.41 69.8377 168.538 69.8817 168.648 69.911C168.619 70.4023 168.564 70.7837 168.483 71.055C168.402 71.3263 168.274 71.5133 168.098 71.616C167.929 71.726 167.691 71.781 167.383 71.781C167.332 71.781 167.24 71.781 167.108 71.781C166.976 71.781 166.826 71.781 166.657 71.781C166.488 71.781 166.316 71.781 166.14 71.781C165.964 71.781 165.81 71.781 165.678 71.781C165.553 71.781 165.469 71.781 165.425 71.781C165.073 71.781 164.794 71.748 164.589 71.682C164.391 71.616 164.252 71.4987 164.171 71.33C164.098 71.1613 164.061 70.923 164.061 70.615V66.897ZM167.57 67.491L168.109 68.107C167.808 68.283 167.46 68.4517 167.064 68.613C166.668 68.767 166.257 68.9137 165.832 69.053C165.407 69.185 164.996 69.306 164.6 69.416C164.578 69.3353 164.541 69.2363 164.49 69.119C164.439 69.0017 164.391 68.9027 164.347 68.822C164.728 68.712 165.117 68.5837 165.513 68.437C165.916 68.2903 166.298 68.1363 166.657 67.975C167.016 67.8137 167.321 67.6523 167.57 67.491ZM161.663 62.794L162.345 62.53C162.543 62.7793 162.734 63.0543 162.917 63.355C163.108 63.6483 163.28 63.938 163.434 64.224C163.588 64.51 163.705 64.7667 163.786 64.994L163.071 65.313C162.998 65.0857 162.884 64.8253 162.73 64.532C162.583 64.2387 162.415 63.9417 162.224 63.641C162.041 63.3403 161.854 63.058 161.663 62.794Z" fill="white"/>
<defs>
<clipPath id="clip0_5260_21310">
<rect width="174" height="51" fill="white"/>
</clipPath>
</defs>
</svg>
