<svg width="442" height="225" viewBox="0 0 442 225" fill="none" xmlns="http://www.w3.org/2000/svg">
<rect width="442" height="225" rx="10" fill="#CDFFB5"/>
<path d="M171 162.5V151.389H259.889V162.5H171ZM193.222 140.278C187.111 140.278 181.88 138.102 177.528 133.75C173.176 129.398 171 124.167 171 118.056V62.5H259.889C262.944 62.5 265.56 63.588 267.736 65.7639C269.912 67.9398 271 70.5556 271 73.6111V90.2778C271 93.3333 269.912 95.9491 267.736 98.125C265.56 100.301 262.944 101.389 259.889 101.389H248.778V118.056C248.778 124.167 246.602 129.398 242.25 133.75C237.898 138.102 232.667 140.278 226.556 140.278H193.222ZM193.222 129.167H226.556C229.611 129.167 232.227 128.079 234.403 125.903C236.579 123.727 237.667 121.111 237.667 118.056V73.6111H182.111V118.056C182.111 121.111 183.199 123.727 185.375 125.903C187.551 128.079 190.167 129.167 193.222 129.167ZM248.778 90.2778H259.889V73.6111H248.778V90.2778ZM193.222 129.167H182.111H237.667H193.222Z" fill="#74D09C"/>
</svg>
