<svg width="442" height="225" viewBox="0 0 442 225" fill="none" xmlns="http://www.w3.org/2000/svg">
<rect width="442" height="225" rx="10" fill="#FFCFCF"/>
<path d="M257.818 135.129C259.106 135.814 260.242 135.662 261.227 134.671C262.212 133.681 262.364 132.538 261.682 131.243L255.091 118.9L250.318 131.243L257.818 135.129ZM235.091 130.786H240.545L251.455 103.586C251.682 102.976 251.625 102.462 251.284 102.043C250.943 101.624 250.545 101.3 250.091 101.071L241 97.4143C240.318 97.1857 239.655 97.2619 239.011 97.6429C238.367 98.0238 237.97 98.5571 237.818 99.2429L235.091 130.786ZM201.455 130.786H206.909L204.182 99.2429C204.03 98.4048 203.633 97.8333 202.989 97.5286C202.345 97.2238 201.682 97.1857 201 97.4143L191.909 101.071C191.303 101.3 190.867 101.624 190.602 102.043C190.337 102.462 190.318 102.976 190.545 103.586L201.455 130.786ZM184.182 135.129L191.682 131.243L186.909 118.9L180.318 131.243C179.636 132.538 179.788 133.681 180.773 134.671C181.758 135.662 182.894 135.814 184.182 135.129ZM216 130.786H226L229.409 92.1571C229.561 91.4714 229.39 90.881 228.898 90.3857C228.405 89.8905 227.818 89.6429 227.136 89.6429H214.864C214.258 89.6429 213.708 89.8905 213.216 90.3857C212.723 90.881 212.515 91.4714 212.591 92.1571L216 130.786ZM182.136 144.5C178.955 144.5 176.303 143.3 174.182 140.9C172.061 138.5 171 135.662 171 132.386C171 131.471 171.133 130.576 171.398 129.7C171.663 128.824 171.985 127.967 172.364 127.129L182.364 107.929C181.303 104.881 181.341 101.871 182.477 98.9C183.614 95.9286 185.621 93.8333 188.5 92.6143L197.591 88.9571C198.652 88.5762 199.712 88.3095 200.773 88.1571C201.833 88.0048 202.894 88.0429 203.955 88.2714C205.015 86.0619 206.492 84.2143 208.386 82.7286C210.28 81.2429 212.439 80.5 214.864 80.5H227.136C229.561 80.5 231.72 81.2429 233.614 82.7286C235.508 84.2143 236.985 86.0619 238.045 88.2714C239.106 88.119 240.167 88.1 241.227 88.2143C242.288 88.3286 243.348 88.5762 244.409 88.9571L253.5 92.6143C256.53 93.8333 258.652 95.9286 259.864 98.9C261.076 101.871 261 104.805 259.636 107.7L269.636 126.9C270.091 127.738 270.432 128.614 270.659 129.529C270.886 130.443 271 131.395 271 132.386C271 135.814 269.845 138.69 267.534 141.014C265.223 143.338 262.364 144.5 258.955 144.5C258.121 144.5 257.288 144.405 256.455 144.214C255.621 144.024 254.788 143.738 253.955 143.357L246.909 139.929H194.864L188.5 143.357C187.515 143.89 186.473 144.214 185.375 144.329C184.277 144.443 183.197 144.5 182.136 144.5Z" fill="#FF5858"/>
</svg>
