<svg width="442" height="225" viewBox="0 0 442 225" fill="none" xmlns="http://www.w3.org/2000/svg">
<rect width="442" height="225" rx="10" fill="#D3E9FF"/>
<path d="M264.242 99.4614L257.233 92.4572L260.987 88.5798L244.967 72.57L241.088 76.3223L233.954 69.1929L237.708 65.3156C239.627 63.3977 242.005 62.4596 244.842 62.5013C247.679 62.543 250.057 63.5228 251.976 65.4406L268.121 81.5755C270.04 83.4933 271 85.8489 271 88.6423C271 91.4357 270.04 93.7913 268.121 95.7091L264.242 99.4614ZM204.166 159.623C202.247 161.541 199.89 162.5 197.095 162.5C194.3 162.5 191.943 161.541 190.024 159.623L173.879 143.488C171.96 141.571 171 139.215 171 136.422C171 133.628 171.96 131.273 173.879 129.355L177.633 125.602L184.767 132.732L180.887 136.484L197.033 152.619L200.787 148.742L207.921 155.871L204.166 159.623ZM253.854 117.598L260.987 110.468L223.065 72.57L215.931 79.6993L253.854 117.598ZM218.81 152.619L225.944 145.365L188.146 107.591L180.887 114.721L218.81 152.619ZM218.059 123.351L231.826 109.718L223.816 101.713L210.174 115.471L218.059 123.351ZM225.944 159.623C224.025 161.541 221.647 162.5 218.81 162.5C215.973 162.5 213.595 161.541 211.676 159.623L173.879 121.85C171.96 119.932 171 117.556 171 114.721C171 111.886 171.96 109.509 173.879 107.591L181.013 100.462C182.932 98.5442 185.289 97.5853 188.084 97.5853C190.879 97.5853 193.236 98.5442 195.155 100.462L203.04 108.342L216.807 94.5835L208.922 86.8287C207.003 84.9109 206.044 82.5344 206.044 79.6993C206.044 76.8643 207.003 74.4878 208.922 72.57L216.056 65.4406C217.975 63.5228 220.332 62.5639 223.128 62.5639C225.923 62.5639 228.28 63.5228 230.199 65.4406L268.121 103.339C270.04 105.257 271 107.612 271 110.406C271 113.199 270.04 115.555 268.121 117.472L260.987 124.602C259.068 126.52 256.69 127.479 253.854 127.479C251.017 127.479 248.639 126.52 246.72 124.602L238.96 116.722L225.193 130.48L233.078 138.36C234.997 140.278 235.956 142.634 235.956 145.427C235.956 148.22 234.997 150.576 233.078 152.494L225.944 159.623Z" fill="#5AABFF"/>
</svg>
