<svg width="442" height="225" viewBox="0 0 442 225" fill="none" xmlns="http://www.w3.org/2000/svg">
<rect width="442" height="225" rx="10" fill="#FFFFAA"/>
<path d="M243.512 132.458C247.675 132.458 251.214 133.915 254.128 136.83C257.043 139.745 258.5 143.285 258.5 147.449C258.5 151.613 257.043 155.153 254.128 158.068C251.214 160.983 247.675 162.44 243.512 162.44C240.348 162.44 237.496 161.524 234.956 159.692C232.417 157.859 230.606 155.444 229.523 152.446H197.799L192.803 160.191C192.053 161.357 190.992 162.086 189.618 162.378C188.244 162.669 186.974 162.44 185.808 161.69C184.642 160.941 183.914 159.879 183.622 158.505C183.331 157.131 183.56 155.861 184.309 154.695L204.044 124.463C198.048 121.714 193.136 117.488 189.305 111.783C185.475 106.078 183.56 99.6444 183.56 92.482H253.504C253.504 99.6444 251.589 106.078 247.759 111.783C243.928 117.488 239.016 121.714 233.02 124.463L235.893 128.96C234.144 129.793 232.708 130.626 231.584 131.459C230.46 132.291 229.232 133.457 227.899 134.957L222.903 127.211C222.237 127.378 221.53 127.461 220.78 127.461H216.284C215.534 127.461 214.827 127.378 214.16 127.211L204.293 142.452H229.523C230.606 139.454 232.417 137.039 234.956 135.206C237.496 133.374 240.348 132.458 243.512 132.458ZM243.512 152.446C244.928 152.446 246.114 151.967 247.072 151.009C248.029 150.052 248.508 148.865 248.508 147.449C248.508 146.033 248.029 144.846 247.072 143.889C246.114 142.931 244.928 142.452 243.512 142.452C242.096 142.452 240.91 142.931 239.952 143.889C238.995 144.846 238.516 146.033 238.516 147.449C238.516 148.865 238.995 150.052 239.952 151.009C240.91 151.967 242.096 152.446 243.512 152.446ZM218.532 117.467C223.528 117.467 228.087 116.093 232.209 113.344C236.33 110.596 239.432 106.973 241.514 102.476H195.55C197.715 106.973 200.838 110.596 204.918 113.344C208.998 116.093 213.536 117.467 218.532 117.467ZM205.542 87.485C205.959 85.0698 205.896 83.0293 205.355 81.3637C204.814 79.698 203.669 77.7825 201.92 75.6171C200.255 73.4518 199.152 71.3905 198.61 69.4333C198.069 67.4762 198.007 65.1651 198.423 62.5H203.419C203.003 64.9152 203.065 66.9348 203.606 68.5589C204.148 70.1829 205.293 72.0776 207.041 74.243C208.79 76.4083 209.914 78.4696 210.413 80.4267C210.913 82.3839 210.955 84.7367 210.538 87.485H205.542ZM218.032 87.485C218.449 85.0698 218.407 83.0293 217.907 81.3637C217.408 79.698 216.284 77.7825 214.535 75.6171C212.787 73.535 211.642 71.5154 211.1 69.5583C210.559 67.6011 210.497 65.2484 210.913 62.5H215.909C215.493 64.9152 215.555 66.9348 216.096 68.5589C216.638 70.1829 217.783 72.0776 219.531 74.243C221.197 76.325 222.3 78.3447 222.841 80.3018C223.382 82.259 223.445 84.6534 223.028 87.485H218.032ZM230.522 87.485C230.939 85.0698 230.897 83.0293 230.397 81.3637C229.898 79.698 228.774 77.7825 227.025 75.6171C225.277 73.535 224.132 71.5154 223.59 69.5583C223.049 67.6011 222.987 65.2484 223.403 62.5H228.399C227.983 64.9152 228.045 66.9348 228.586 68.5589C229.128 70.1829 230.273 72.0776 232.021 74.243C233.687 76.325 234.79 78.3447 235.331 80.3018C235.872 82.259 235.935 84.6534 235.518 87.485H230.522Z" fill="#FFCC00"/>
</svg>
