<svg width="442" height="225" viewBox="0 0 442 225" fill="none" xmlns="http://www.w3.org/2000/svg">
<rect width="442" height="225" rx="10" fill="#FFCFCF"/>
<path d="M189.056 173.5V151.318H184.889C181 151.318 177.713 149.978 175.028 147.298C172.343 144.617 171 141.336 171 137.455C171 133.573 172.343 130.292 175.028 127.611C177.713 124.931 181 123.591 184.889 123.591H189.056V118.045H171V90.3182H189.056V84.7727H184.889C181 84.7727 177.713 83.4326 175.028 80.7523C172.343 78.072 171 74.7909 171 70.9091C171 67.0273 172.343 63.7462 175.028 61.0659C177.713 58.3856 181 57.0455 184.889 57.0455H189.056V51.5H197.389V57.0455H201.556C205.444 57.0455 208.731 58.3856 211.417 61.0659C214.102 63.7462 215.444 67.0273 215.444 70.9091C215.444 74.7909 214.102 78.072 211.417 80.7523C208.731 83.4326 205.444 84.7727 201.556 84.7727H197.389V90.3182H215.444V118.045H197.389V123.591H201.556C205.444 123.591 208.731 124.931 211.417 127.611C214.102 130.292 215.444 133.573 215.444 137.455C215.444 141.336 214.102 144.617 211.417 147.298C208.731 149.978 205.444 151.318 201.556 151.318H197.389V173.5H189.056ZM244.611 173.5V151.318H240.444C236.556 151.318 233.269 149.978 230.583 147.298C227.898 144.617 226.556 141.336 226.556 137.455C226.556 133.573 227.898 130.292 230.583 127.611C233.269 124.931 236.556 123.591 240.444 123.591H244.611V118.045H226.556V90.3182H244.611V84.7727H240.444C236.556 84.7727 233.269 83.4326 230.583 80.7523C227.898 78.072 226.556 74.7909 226.556 70.9091C226.556 67.0273 227.898 63.7462 230.583 61.0659C233.269 58.3856 236.556 57.0455 240.444 57.0455H244.611V51.5H252.944V57.0455H257.111C261 57.0455 264.287 58.3856 266.972 61.0659C269.657 63.7462 271 67.0273 271 70.9091C271 74.7909 269.657 78.072 266.972 80.7523C264.287 83.4326 261 84.7727 257.111 84.7727H252.944V90.3182H271V118.045H252.944V123.591H257.111C261 123.591 264.287 124.931 266.972 127.611C269.657 130.292 271 133.573 271 137.455C271 141.336 269.657 144.617 266.972 147.298C264.287 149.978 261 151.318 257.111 151.318H252.944V173.5H244.611ZM184.889 73.6818H201.556C202.296 73.6818 202.944 73.4045 203.5 72.85C204.056 72.2955 204.333 71.6485 204.333 70.9091C204.333 70.1697 204.056 69.5227 203.5 68.9682C202.944 68.4136 202.296 68.1364 201.556 68.1364H184.889C184.148 68.1364 183.5 68.4136 182.944 68.9682C182.389 69.5227 182.111 70.1697 182.111 70.9091C182.111 71.6485 182.389 72.2955 182.944 72.85C183.5 73.4045 184.148 73.6818 184.889 73.6818ZM240.444 73.6818H257.111C257.852 73.6818 258.5 73.4045 259.056 72.85C259.611 72.2955 259.889 71.6485 259.889 70.9091C259.889 70.1697 259.611 69.5227 259.056 68.9682C258.5 68.4136 257.852 68.1364 257.111 68.1364H240.444C239.704 68.1364 239.056 68.4136 238.5 68.9682C237.944 69.5227 237.667 70.1697 237.667 70.9091C237.667 71.6485 237.944 72.2955 238.5 72.85C239.056 73.4045 239.704 73.6818 240.444 73.6818ZM182.111 106.955H204.333V101.409H182.111V106.955ZM237.667 106.955H259.889V101.409H237.667V106.955ZM184.889 140.227H201.556C202.296 140.227 202.944 139.95 203.5 139.395C204.056 138.841 204.333 138.194 204.333 137.455C204.333 136.715 204.056 136.068 203.5 135.514C202.944 134.959 202.296 134.682 201.556 134.682H184.889C184.148 134.682 183.5 134.959 182.944 135.514C182.389 136.068 182.111 136.715 182.111 137.455C182.111 138.194 182.389 138.841 182.944 139.395C183.5 139.95 184.148 140.227 184.889 140.227ZM240.444 140.227H257.111C257.852 140.227 258.5 139.95 259.056 139.395C259.611 138.841 259.889 138.194 259.889 137.455C259.889 136.715 259.611 136.068 259.056 135.514C258.5 134.959 257.852 134.682 257.111 134.682H240.444C239.704 134.682 239.056 134.959 238.5 135.514C237.944 136.068 237.667 136.715 237.667 137.455C237.667 138.194 237.944 138.841 238.5 139.395C239.056 139.95 239.704 140.227 240.444 140.227Z" fill="#FF5858"/>
</svg>
