<svg width="442" height="225" viewBox="0 0 442 225" fill="none" xmlns="http://www.w3.org/2000/svg">
<rect width="442" height="225" rx="10" fill="#D3E9FF"/>
<path d="M181 157.5C178.25 157.5 175.896 156.521 173.938 154.562C171.979 152.604 171 150.25 171 147.5V132.5H271V147.5C271 150.25 270.021 152.604 268.062 154.562C266.104 156.521 263.75 157.5 261 157.5H181ZM181 142.5V147.5H261V142.5H181ZM221 120C218 120 215.625 120.833 213.875 122.5C212.125 124.167 208.917 125 204.25 125C199.583 125 196.417 124.167 194.75 122.5C193.083 120.833 190.75 120 187.75 120C184.75 120 182.375 120.833 180.625 122.5C178.875 124.167 175.667 125 171 125V115C174 115 176.375 114.167 178.125 112.5C179.875 110.833 183.083 110 187.75 110C192.417 110 195.583 110.833 197.25 112.5C198.917 114.167 201.25 115 204.25 115C207.25 115 209.625 114.167 211.375 112.5C213.125 110.833 216.333 110 221 110C225.667 110 228.875 110.833 230.625 112.5C232.375 114.167 234.75 115 237.75 115C240.75 115 243.083 114.167 244.75 112.5C246.417 110.833 249.583 110 254.25 110C258.917 110 262.208 110.833 264.125 112.5C266.042 114.167 268.333 115 271 115V125C266.333 125 263.208 124.167 261.625 122.5C260.042 120.833 257.75 120 254.75 120C251.75 120 249.333 120.833 247.5 122.5C245.667 124.167 242.417 125 237.75 125C233.083 125 229.875 124.167 228.125 122.5C226.375 120.833 224 120 221 120ZM171 102.5V97.5C171 87.9167 175.521 80.5208 184.562 75.3125C193.604 70.1042 205.75 67.5 221 67.5C236.25 67.5 248.396 70.1042 257.438 75.3125C266.479 80.5208 271 87.9167 271 97.5V102.5H171ZM221 77.5C210.667 77.5 202.021 78.7917 195.062 81.375C188.104 83.9583 183.667 87.6667 181.75 92.5H260.25C258.333 87.6667 253.896 83.9583 246.938 81.375C239.979 78.7917 231.333 77.5 221 77.5Z" fill="#5AABFF"/>
</svg>
