<svg width="442" height="225" viewBox="0 0 442 225" fill="none" xmlns="http://www.w3.org/2000/svg">
<rect width="442" height="225" rx="10" fill="#F5F5F5"/>
<path d="M211 152.5H231V147L237.25 144.5C242.667 142.333 247.271 139.312 251.062 135.438C254.854 131.562 257.583 127.25 259.25 122.5H182.75C184.417 127.25 187.125 131.562 190.875 135.438C194.625 139.312 199.25 142.333 204.75 144.5L211 147V152.5ZM201 162.5V153.75C192.083 150.25 184.854 144.833 179.312 137.5C173.771 130.167 171 121.833 171 112.5H181V72.5L271 62.5V70L213.5 76.5V85H271V92.5H213.5V112.5H271C271 121.833 268.229 130.167 262.688 137.5C257.146 144.833 249.917 150.25 241 153.75V162.5H201ZM201 85H206V77.25L201 77.875V85ZM188.5 85H193.5V78.75L188.5 79.25V85ZM201 112.5H206V92.5H201V112.5ZM188.5 112.5H193.5V92.5H188.5V112.5Z" fill="#555555"/>
</svg>
