<svg width="442" height="225" viewBox="0 0 442 225" fill="none" xmlns="http://www.w3.org/2000/svg">
<rect width="442" height="225" rx="10" fill="#FFFFAA"/>
<path d="M171 160L194.202 95.122L235.965 136.829L171 160ZM186.313 144.707L219.028 133.122L197.914 112.037L186.313 144.707ZM229.237 116.207L224.364 111.341L250.35 85.3902C252.825 82.9187 255.803 81.6829 259.283 81.6829C262.763 81.6829 265.741 82.9187 268.216 85.3902L271 88.1707L266.128 93.0366L263.343 90.2561C262.261 89.1748 260.907 88.6341 259.283 88.6341C257.659 88.6341 256.305 89.1748 255.223 90.2561L229.237 116.207ZM210.675 97.6707L205.803 92.8049L208.587 90.0244C209.67 88.9431 210.211 87.6301 210.211 86.0854C210.211 84.5407 209.67 83.2276 208.587 82.1463L205.571 79.1341L210.443 74.2683L213.459 77.2805C215.934 79.752 217.172 82.687 217.172 86.0854C217.172 89.4837 215.934 92.4187 213.459 94.8902L210.675 97.6707ZM219.956 106.939L215.084 102.073L231.789 85.3902C232.872 84.3089 233.413 82.9573 233.413 81.3354C233.413 79.7134 232.872 78.3618 231.789 77.2805L224.364 69.8659L229.237 65L236.661 72.4146C239.136 74.8862 240.374 77.8598 240.374 81.3354C240.374 84.811 239.136 87.7846 236.661 90.2561L219.956 106.939ZM238.517 125.476L233.645 120.61L241.07 113.195C243.544 110.724 246.522 109.488 250.002 109.488C253.483 109.488 256.46 110.724 258.935 113.195L266.36 120.61L261.487 125.476L254.063 118.061C252.98 116.98 251.626 116.439 250.002 116.439C248.378 116.439 247.025 116.98 245.942 118.061L238.517 125.476Z" fill="#FFCC00"/>
</svg>
