<svg width="442" height="225" viewBox="0 0 442 225" fill="none" xmlns="http://www.w3.org/2000/svg">
<rect width="442" height="225" rx="10" fill="#FFF1DE"/>
<path d="M171 150V140H271V150H171ZM176 135V130C176 119.333 179.271 109.917 185.812 101.75C192.354 93.5833 200.75 88.4167 211 86.25V85C211 82.25 211.979 79.8958 213.938 77.9375C215.896 75.9792 218.25 75 221 75C223.75 75 226.104 75.9792 228.062 77.9375C230.021 79.8958 231 82.25 231 85V86.25C241.333 88.4167 249.75 93.5833 256.25 101.75C262.75 109.917 266 119.333 266 130V135H176ZM186.25 125H255.75C254.583 116.333 250.708 109.167 244.125 103.5C237.542 97.8333 229.833 95 221 95C212.167 95 204.479 97.8333 197.938 103.5C191.396 109.167 187.5 116.333 186.25 125Z" fill="#FFA527"/>
</svg>
