<svg width="12" height="13" viewBox="0 0 12 13" fill="none" xmlns="http://www.w3.org/2000/svg">
<path d="M4.0625 7.5H5.3125V4.375H4.0625V7.5ZM1.5625 6.5625C1.08333 6.32292 0.703125 5.97656 0.421875 5.52344C0.140625 5.07031 0 4.57812 0 4.04688C0 3.26562 0.268229 2.60417 0.804688 2.0625C1.34115 1.52083 2 1.25 2.78125 1.25C2.90625 1.25 3.03385 1.26042 3.16406 1.28125C3.29427 1.30208 3.42188 1.32812 3.54688 1.35938C3.80729 0.932292 4.14583 0.598958 4.5625 0.359375C4.97917 0.119792 5.4375 0 5.9375 0C6.4375 0 6.89583 0.119792 7.3125 0.359375C7.72917 0.598958 8.06771 0.932292 8.32812 1.35938C8.45312 1.32812 8.57812 1.30208 8.70312 1.28125C8.82812 1.26042 8.95833 1.25 9.09375 1.25C9.875 1.25 10.5339 1.52083 11.0703 2.0625C11.6068 2.60417 11.875 3.26562 11.875 4.04688C11.875 4.57812 11.7344 5.07031 11.4531 5.52344C11.1719 5.97656 10.7917 6.32292 10.3125 6.5625V10H1.5625V6.5625ZM6.5625 7.5H7.8125V4.375H6.5625V7.5ZM2.8125 8.75H9.0625V5.79688L9.75 5.45312C10.0208 5.31771 10.2344 5.1276 10.3906 4.88281C10.5469 4.63802 10.625 4.36458 10.625 4.0625C10.625 3.625 10.4766 3.25521 10.1797 2.95312C9.88281 2.65104 9.52083 2.5 9.09375 2.5C8.97917 2.5 8.875 2.51042 8.78125 2.53125C8.6875 2.55208 8.58854 2.57812 8.48438 2.60938L7.75 2.8125L7.26562 2C7.11979 1.76042 6.92969 1.57552 6.69531 1.44531C6.46094 1.3151 6.20833 1.25 5.9375 1.25C5.66667 1.25 5.41406 1.3151 5.17969 1.44531C4.94531 1.57552 4.75521 1.76042 4.60938 2L4.125 2.8125L3.375 2.60938C3.27083 2.58854 3.16927 2.5651 3.07031 2.53906C2.97135 2.51302 2.86979 2.5 2.76562 2.5C2.33854 2.5 1.97917 2.65104 1.6875 2.95312C1.39583 3.25521 1.25 3.625 1.25 4.0625C1.25 4.36458 1.32812 4.63802 1.48438 4.88281C1.64062 5.1276 1.85417 5.31771 2.125 5.45312L2.8125 5.79688V8.75ZM1.5625 10H2.8125V11.25H9.0625V10H10.3125V12.5H1.5625V10Z" fill="#555555"/>
</svg>
