<svg width="47" height="52" viewBox="0 0 47 52" fill="none" xmlns="http://www.w3.org/2000/svg">
<path d="M37.2271 45.2985C33.5302 45.0497 30.3262 44.3034 25.3971 39.3278C22.9325 36.5912 21.4537 34.6009 20.7143 33.6058C25.6435 33.1082 31.805 31.118 36.7342 27.3863C45.1138 21.4156 47.8248 13.7034 46.0996 7.73264C44.3744 1.76191 39.1988 -0.228338 32.2979 0.0204424C25.3971 0.269223 17.7568 2.25947 10.6095 8.72776C3.46222 15.4448 0.258256 25.3961 0.0117972 27.3863C-0.234662 28.6302 3.46222 34.8497 3.46222 31.3668C3.70868 28.1326 4.94098 24.6497 8.14494 18.9278C11.3489 12.957 16.0316 6.73752 24.4112 3.50337C30.0798 1.26434 38.4594 1.51313 41.4169 6.73752C44.6209 11.9619 39.9381 21.1668 32.2979 26.8887C26.1364 31.6156 20.2214 32.3619 16.2781 31.8643C17.2639 29.3765 18.4962 26.8887 19.7285 24.4009C21.7002 20.918 24.1648 16.9375 26.6294 14.2009C28.8475 11.7131 30.0798 10.2204 30.0798 9.72288C30.0798 8.47898 29.3404 6.9863 28.3546 6.48874C27.3687 5.99117 24.9041 8.47898 23.1789 10.718C21.4537 13.2058 16.2781 20.4204 12.8277 30.8692C10.1166 29.3765 9.13078 26.3912 9.13078 25.6448C9.13078 24.8985 8.14494 24.8985 8.14494 26.1424C7.89848 27.1375 8.63786 29.8741 12.5812 32.3619C9.87015 40.8204 9.87016 43.3082 9.6237 44.8009C10.1166 44.8009 11.1024 44.5521 12.3347 44.5521C13.3206 41.0692 14.3064 37.3375 15.7852 33.6058C16.771 33.8546 18.2498 33.8546 19.4821 33.8546C19.7285 34.3521 21.9466 39.079 25.1506 43.0595C28.601 47.2887 35.2554 52.0156 38.4594 50.7717C40.4311 50.0253 42.1563 46.0448 41.9098 45.2985C41.6634 44.5522 40.1846 45.5473 37.2271 45.2985Z" fill="black"/>
<path d="M10.6095 51.0204C10.6095 51.0204 11.1024 49.5278 12.0883 46.0448C10.856 46.0448 10.1166 46.2936 9.62369 46.2936C9.87015 48.2839 10.6095 51.0204 10.6095 51.0204Z" fill="black"/>
</svg>
