<svg width="42" height="42" viewBox="0 0 42 42" fill="none" xmlns="http://www.w3.org/2000/svg">
<path d="M41.611 18.083H40V18H22V26H33.303C31.654 30.657 27.223 34 22 34C15.373 34 10 28.627 10 22C10 15.373 15.373 10 22 10C25.059 10 27.842 11.154 29.961 13.039L35.618 7.382C32.046 4.053 27.268 2 22 2C10.955 2 2 10.955 2 22C2 33.045 10.955 42 22 42C33.045 42 42 33.045 42 22C42 20.659 41.862 19.35 41.611 18.083Z" fill="#FFC107"/>
<path d="M4.30566 12.691L10.8767 17.51C12.6547 13.108 16.9607 10 21.9997 10C25.0587 10 27.8417 11.154 29.9607 13.039L35.6177 7.382C32.0457 4.053 27.2677 2 21.9997 2C14.3177 2 7.65566 6.337 4.30566 12.691Z" fill="#FF3D00"/>
<path d="M21.9998 41.9987C27.1658 41.9987 31.8598 40.0217 35.4088 36.8067L29.2188 31.5687C27.1434 33.1471 24.6073 34.0008 21.9998 33.9987C16.7978 33.9987 12.3808 30.6817 10.7168 26.0527L4.19482 31.0777C7.50482 37.5547 14.2268 41.9987 21.9998 41.9987Z" fill="#4CAF50"/>
<path d="M41.611 18.083H40V18H22V26H33.303C32.5142 28.2164 31.0934 30.1532 29.216 31.571L29.219 31.569L35.409 36.807C34.971 37.205 42 32 42 22C42 20.659 41.862 19.35 41.611 18.083Z" fill="#1976D2"/>
</svg>
